<?xml version="1.0" encoding="UTF-8"?>
<svg xmlns="http://www.w3.org/2000/svg" version="1.1" width="331" height="262" style="background: transparent;">

<path d="M0 0 C3.3 0 6.6 0 10 0 C10 3.3 10 6.6 10 10 C14.49355566 10.9611129 14.49355566 10.9611129 19 11 C21.37337269 9.23893579 22.38826995 7.5475733 24 5 C30.75 6.625 30.75 6.625 33 10 C33.44730469 9.48308594 33.89460938 8.96617188 34.35546875 8.43359375 C39.23749007 3.11437649 39.23749007 3.11437649 42.5 2.625 C46.26481434 4.69564789 49.60246951 7.40370427 52 11 C51.80695439 14.4015967 50.16638489 16.28399969 47.9375 18.75 C47.38964844 19.36359375 46.84179688 19.9771875 46.27734375 20.609375 C45.85582031 21.06828125 45.43429688 21.5271875 45 22 C45.66 22 46.32 22 47 22 C47.495 24.97 47.495 24.97 48 28 C46.35 29.32 44.7 30.64 43 32 C43.58929011 35.03063487 44.25044562 38.0017825 45 41 C47.97 41 50.94 41 54 41 C55.88343932 44.76687864 56.22057835 46.02958963 56 50 C53.03 50.99 50.06 51.98 47 53 C47 55.64 47 58.28 47 61 C49.31 61.99 51.62 62.98 54 64 C54.125 67.375 54.125 67.375 54 71 C51.60236815 73.39763185 50.66726502 73.34280586 47.375 73.625 C46.55773437 73.69976562 45.74046875 73.77453125 44.8984375 73.8515625 C43.95871094 73.92503906 43.95871094 73.92503906 43 74 C43.56589844 74.55429688 44.13179688 75.10859375 44.71484375 75.6796875 C45.44832031 76.40414062 46.18179688 77.12859375 46.9375 77.875 C47.66839844 78.59429687 48.39929688 79.31359375 49.15234375 80.0546875 C51.94659375 82.99662513 52.11894831 84.67361853 52.0625 88.625 C52.05347656 89.44226563 52.04445313 90.25953125 52.03515625 91.1015625 C52.02355469 91.72804688 52.01195312 92.35453125 52 93 C49.24391568 91.73481474 47.19482541 90.39400562 45 88.3125 C42.35040721 85.80224473 42.35040721 85.80224473 39.875 85.9375 C37.38738617 87.34714784 35.75099999 88.7301852 34 91 C33.77707415 93.03676643 33.77707415 93.03676643 35 95 C36.2684375 96.2375 36.2684375 96.2375 37.5625 97.5 C40 100 40 100 40 104 C35.5982658 103.8082033 32.00832338 103.56992191 28.125 101.375 C24.23097843 97.02285824 22.97693478 93.17783613 22.8125 87.5 C22.57272902 84.78038777 22.35911695 83.39338448 20.49557495 81.35202026 C19.84589752 80.83737213 19.19622009 80.322724 18.52685547 79.79248047 C13.64014159 75.74394564 9.21950361 71.32796765 4.7578125 66.8203125 C3.90822968 65.96694305 3.05864685 65.11357361 2.18331909 64.23434448 C-0.5052412 61.5336567 -3.19051304 58.82973632 -5.875 56.125 C-9.43205324 52.54142986 -12.99235333 48.96113213 -16.5546875 45.3828125 C-17.37234589 44.55685577 -18.19000427 43.73089905 -19.03244019 42.87991333 C-19.78727692 42.12177338 -20.54211365 41.36363342 -21.31982422 40.58251953 C-21.98408417 39.91302277 -22.64834412 39.243526 -23.33273315 38.55374146 C-24.9329069 36.91579003 -24.9329069 36.91579003 -27 36 C-32.68884022 46.56498898 -31.86887732 57.65256558 -29 69 C-28.34 69 -27.68 69 -27 69 C-26.67 70.32 -26.34 71.64 -26 73 C-25.34 73 -24.68 73 -24 73 C-24 73.66 -24 74.32 -24 75 C-23.34 75 -22.68 75 -22 75 C-21.505 73.515 -21.505 73.515 -21 72 C-19.37275065 70.27104756 -17.7130063 68.64113191 -16 67 C-14.39314404 65.39852714 -12.78914241 63.79418696 -11.1875 62.1875 C-9.79166667 60.79166667 -8.39583333 59.39583333 -7 58 C-5.68 58.66 -4.36 59.32 -3 60 C-3.57793829 63.27572232 -4.50218183 64.85310835 -6.90625 67.12890625 C-7.48503906 67.68900391 -8.06382812 68.24910156 -8.66015625 68.82617188 C-9.26730469 69.39916016 -9.87445313 69.97214844 -10.5 70.5625 C-11.70241377 71.70492073 -12.90053434 72.85188178 -14.09375 74.00390625 C-14.62677734 74.50736572 -15.15980469 75.0108252 -15.70898438 75.52954102 C-17.24459651 77.08666628 -17.24459651 77.08666628 -18 80 C-17.34 80 -16.68 80 -16 80 C-15.5875 80.45375 -15.175 80.9075 -14.75 81.375 C-10.44232521 85.37498373 -4.64990242 85.33893048 0.9375 85.3125 C1.61490234 85.32861328 2.29230469 85.34472656 2.99023438 85.36132812 C8.1376972 85.36626337 11.44523846 84.12178332 16 82 C18.28867185 82.24091283 19.38430857 82.38430857 21 84 C21.15803776 85.58037765 21.27651104 87.16479674 21.375 88.75 C21.74169276 92.96997247 22.605105 95.45972044 25 99 C25 100.32 25 101.64 25 103 C21.86501708 104.85776765 19.62528568 105.20140476 16 105 C15.01 102.69 14.02 100.38 13 98 C10.03 98 7.06 98 4 98 C3.34 101.3 2.68 104.6 2 108 C-0.97 107.67 -3.94 107.34 -7 107 C-7 103.7 -7 100.4 -7 97 C-12.02635535 96.6556106 -12.02635535 96.6556106 -17 97 C-19.67818983 99.29857106 -19.67818983 99.29857106 -21 102 C-24.34373475 101.44271087 -27.03312999 100.64826111 -30 99 C-30 98.34 -30 97.68 -30 97 C-36.30347455 99.99715719 -36.30347455 99.99715719 -42 104 C-45.16115776 102.63016497 -45.9927092 102.0109362 -48 99 C-45.69 95.37 -43.38 91.74 -41 88 C-41.66 88 -42.32 88 -43 88 C-44.49821059 84.62902617 -45 82.79557881 -45 79 C-44.319375 78.4225 -43.63875 77.845 -42.9375 77.25 C-40.78951045 75.2381695 -40.78951045 75.2381695 -40.95703125 72.96875 C-41.22142595 70.96640084 -41.60389848 68.98050759 -42 67 C-45.3 66.67 -48.6 66.34 -52 66 C-52.33 63.03 -52.66 60.06 -53 57 C-50.03 56.01 -47.06 55.02 -44 54 C-44 51.36 -44 48.72 -44 46 C-45.7015625 45.38125 -45.7015625 45.38125 -47.4375 44.75 C-51 43 -51 43 -52.0625 41.125 C-51.98280339 38.41531519 -51.15015519 36.43562275 -50 34 C-49.30132812 34.01160156 -48.60265625 34.02320313 -47.8828125 34.03515625 C-46.97273438 34.04417969 -46.06265625 34.05320313 -45.125 34.0625 C-44.22007813 34.07410156 -43.31515625 34.08570313 -42.3828125 34.09765625 C-39.9831415 34.16249257 -39.9831415 34.16249257 -38 33 C-38.886875 32.67 -39.77375 32.34 -40.6875 32 C-44.96060828 29.4200101 -47.11606017 26.60790479 -49 22 C-49.37826338 19.17978313 -49.25542055 16.86071012 -49 14 C-46.41659649 15.14817934 -44.6932956 16.27524754 -42.5625 18.1875 C-40.17444247 20.24662556 -40.17444247 20.24662556 -37.4375 20 C-34.57085668 18.8239412 -33.02092346 17.32031952 -31 15 C-32.17314036 12.22712279 -33.65410934 10.17638712 -35.625 7.9375 C-38 5 -38 5 -38 2 C-30.58139535 2.76744186 -30.58139535 2.76744186 -26.875 4.25 C-22.97137843 5.26833606 -21.42431713 3.9354836 -18 2 C-16.68 2 -15.36 2 -14 2 C-12.68 4.31 -11.36 6.62 -10 9 C-7.03 9 -4.06 9 -1 9 C-0.67 6.03 -0.34 3.06 0 0 Z " fill="#9E9A96" transform="translate(138,64)"/>
<path d="M0 0 C3.76481434 2.07064789 7.10246951 4.77870427 9.5 8.375 C9.30695439 11.7765967 7.66638489 13.65899969 5.4375 16.125 C4.88964844 16.73859375 4.34179688 17.3521875 3.77734375 17.984375 C3.35582031 18.44328125 2.93429688 18.9021875 2.5 19.375 C3.16 19.375 3.82 19.375 4.5 19.375 C4.995 22.345 4.995 22.345 5.5 25.375 C3.85 26.695 2.2 28.015 0.5 29.375 C1.08929011 32.40563487 1.75044562 35.3767825 2.5 38.375 C5.47 38.375 8.44 38.375 11.5 38.375 C13.38343932 42.14187864 13.72057835 43.40458963 13.5 47.375 C10.53 48.365 7.56 49.355 4.5 50.375 C4.5 53.015 4.5 55.655 4.5 58.375 C6.81 59.365 9.12 60.355 11.5 61.375 C11.625 64.75 11.625 64.75 11.5 68.375 C9.11228265 70.76271735 8.27145486 70.68789224 5 70.9375 C1.62355437 71.18536169 1.62355437 71.18536169 -1.5 72.375 C-6.34922367 72.94896415 -10.14598929 72.32724323 -14.17169189 69.49606323 C-17.07692163 66.83847543 -19.82494428 64.06378984 -22.5390625 61.21484375 C-23.55411275 60.18298151 -24.57118781 59.15310754 -25.59017944 58.12513733 C-28.25078095 55.43037508 -30.88322919 52.70970004 -33.51049805 49.98248291 C-36.20258322 47.19788657 -38.92072964 44.43898499 -41.63671875 41.67773438 C-46.95014696 36.2681423 -52.23406296 30.83087601 -57.5 25.375 C-56.5 22.375 -56.5 22.375 -53.375 20.1875 C-46.81546509 17.10274574 -37.76143788 16.97601056 -30.91796875 19.22265625 C-29.84482422 19.63837891 -29.84482422 19.63837891 -28.75 20.0625 C-26.70186741 20.78379066 -26.70186741 20.78379066 -24.5 20.375 C-20.13391347 17.24739814 -16.59489651 13.76570364 -13.5 9.375 C-13.08405072 6.62372731 -13.08405072 6.62372731 -13.5 4.375 C-10.5 5.375 -10.5 5.375 -9.5 7.375 C-9.05269531 6.85808594 -8.60539062 6.34117188 -8.14453125 5.80859375 C-3.26250993 0.48937649 -3.26250993 0.48937649 0 0 Z " fill="#F4F4F4" transform="translate(180.5,66.625)"/>
<path d="M0 0 C14.78132118 -0.18451025 14.78132118 -0.18451025 21 1 C21.6875 2.5625 21.6875 2.5625 22 5 C21.525625 5.969375 21.05125 6.93875 20.5625 7.9375 C16.72493272 16.14074015 18.86386621 26.55082795 21 35 C21.66 35 22.32 35 23 35 C23.33 36.32 23.66 37.64 24 39 C24.66 39 25.32 39 26 39 C26 39.66 26 40.32 26 41 C26.66 41 27.32 41 28 41 C28.33 40.01 28.66 39.02 29 38 C30.62724935 36.27104756 32.2869937 34.64113191 34 33 C35.60685596 31.39852714 37.21085759 29.79418696 38.8125 28.1875 C40.20833333 26.79166667 41.60416667 25.39583333 43 24 C44.32 24.66 45.64 25.32 47 26 C46.42206171 29.27572232 45.49781817 30.85310835 43.09375 33.12890625 C42.51496094 33.68900391 41.93617188 34.24910156 41.33984375 34.82617188 C40.73269531 35.39916016 40.12554687 35.97214844 39.5 36.5625 C38.29758623 37.70492073 37.09946566 38.85188178 35.90625 40.00390625 C35.37322266 40.50736572 34.84019531 41.0108252 34.29101562 41.52954102 C32.75540349 43.08666628 32.75540349 43.08666628 32 46 C32.66 46 33.32 46 34 46 C34.4125 46.45375 34.825 46.9075 35.25 47.375 C39.55767479 51.37498373 45.35009758 51.33893048 50.9375 51.3125 C51.61490234 51.32861328 52.29230469 51.34472656 52.99023438 51.36132812 C58.1376972 51.36626337 61.44523846 50.12178332 66 48 C68.28867185 48.24091283 69.38430857 48.38430857 71 50 C71.15803776 51.58037765 71.27651104 53.16479674 71.375 54.75 C71.74169276 58.96997247 72.605105 61.45972044 75 65 C75 66.32 75 67.64 75 69 C71.86501708 70.85776765 69.62528568 71.20140476 66 71 C65.01 68.69 64.02 66.38 63 64 C60.03 64 57.06 64 54 64 C53.34 67.3 52.68 70.6 52 74 C49.03 73.67 46.06 73.34 43 73 C43 69.7 43 66.4 43 63 C37.97364465 62.6556106 37.97364465 62.6556106 33 63 C30.32181017 65.29857106 30.32181017 65.29857106 29 68 C25.65626525 67.44271087 22.96687001 66.64826111 20 65 C20 64.34 20 63.68 20 63 C13.69652545 65.99715719 13.69652545 65.99715719 8 70 C4.83884224 68.63016497 4.0072908 68.0109362 2 65 C4.31 61.37 6.62 57.74 9 54 C8.34 54 7.68 54 7 54 C5.50178941 50.62902617 5 48.79557881 5 45 C5.680625 44.4225 6.36125 43.845 7.0625 43.25 C9.21048955 41.2381695 9.21048955 41.2381695 9.04296875 38.96875 C8.77857405 36.96640084 8.39610152 34.98050759 8 33 C4.7 32.67 1.4 32.34 -2 32 C-2.33 29.03 -2.66 26.06 -3 23 C-0.03 22.01 2.94 21.02 6 20 C6 17.36 6 14.72 6 12 C4.865625 11.5875 3.73125 11.175 2.5625 10.75 C-1 9 -1 9 -2.0625 7.125 C-1.98345597 4.43750287 -1.03584608 2.46165774 0 0 Z " fill="#3B3B3B" transform="translate(88,98)"/>
<path d="M0 0 C2.68286884 1.09988996 4.2609635 2.26048407 6.3046875 4.30859375 C6.92085937 4.90285156 7.53703125 5.49710937 8.171875 6.109375 C9.4296875 7.99609375 9.4296875 7.99609375 9.4765625 9.8671875 C7.89219589 13.08912705 5.37857513 15.31123081 2.8046875 17.74609375 C1.69472013 18.82357268 0.58663634 19.90299548 -0.51953125 20.984375 C-1.05239746 21.50467285 -1.58526367 22.0249707 -2.13427734 22.56103516 C-3.85272132 24.27831052 -5.44309408 26.07573821 -7.0078125 27.93359375 C-10.26144117 31.74291642 -13.73659934 35.31096678 -17.2578125 38.87109375 C-17.81718506 39.44335693 -18.37655762 40.01562012 -18.95288086 40.60522461 C-21.71716865 43.37614039 -24.02599403 45.28618835 -27.5703125 46.99609375 C-27.9003125 47.98609375 -28.2303125 48.97609375 -28.5703125 49.99609375 C-31.93211024 48.55532329 -34.16187518 46.74859354 -36.5703125 43.99609375 C-36.5703125 43.33609375 -36.5703125 42.67609375 -36.5703125 41.99609375 C-37.8903125 41.33609375 -39.2103125 40.67609375 -40.5703125 39.99609375 C-39.9309375 39.76921875 -39.2915625 39.54234375 -38.6328125 39.30859375 C-37.9521875 38.87546875 -37.2715625 38.44234375 -36.5703125 37.99609375 C-36.44011719 37.21621094 -36.30992187 36.43632813 -36.17578125 35.6328125 C-35.43106246 32.38968229 -34.38926585 31.54353026 -31.8203125 29.49609375 C-31.09714844 28.89925781 -30.37398437 28.30242187 -29.62890625 27.6875 C-28.94957031 27.12933594 -28.27023438 26.57117188 -27.5703125 25.99609375 C-24.87943168 23.43037018 -22.4512945 20.85327215 -20.0703125 17.99609375 C-17.69838756 15.14978382 -15.19241496 12.61048414 -12.5703125 9.99609375 C-11.7453125 9.10148437 -10.9203125 8.206875 -10.0703125 7.28515625 C-9.2453125 6.40601562 -8.4203125 5.526875 -7.5703125 4.62109375 C-6.7453125 3.72648437 -5.9203125 2.831875 -5.0703125 1.91015625 C-2.5703125 -0.00390625 -2.5703125 -0.00390625 0 0 Z " fill="#8E8A87" transform="translate(180.5703125,67.00390625)"/>
<path d="M0 0 C2.7355783 0.49999015 4.7026928 1.33783307 7.25 2.5625 C11.45723899 4.17091716 15.60581155 4.33358286 20.0625 4.375 C21.07135254 4.39542358 21.07135254 4.39542358 22.10058594 4.41625977 C27.1746023 4.3709782 30.50071339 3.08517124 35 1 C37.28867185 1.24091283 38.38430857 1.38430857 40 3 C40.15803776 4.58037765 40.27651104 6.16479674 40.375 7.75 C40.74169276 11.96997247 41.605105 14.45972044 44 18 C44 19.32 44 20.64 44 22 C40.86501708 23.85776765 38.62528568 24.20140476 35 24 C34.01 21.69 33.02 19.38 32 17 C29.03 17 26.06 17 23 17 C22.34 20.3 21.68 23.6 21 27 C18.03 26.67 15.06 26.34 12 26 C12 22.7 12 19.4 12 16 C6.97364465 15.6556106 6.97364465 15.6556106 2 16 C-0.67818983 18.29857106 -0.67818983 18.29857106 -2 21 C-5.37462715 20.45276317 -7.08235 19.9451 -10 18 C-9.14360443 10.44973699 -6.36628917 6.27214374 -1 1 C-0.67 0.67 -0.34 0.34 0 0 Z " fill="#3B3B3B" transform="translate(119,145)"/>
<path d="M0 0 C3.3 0 6.6 0 10 0 C10 3.3 10 6.6 10 10 C14.49355566 10.9611129 14.49355566 10.9611129 19 11 C21.37337269 9.23893579 22.38826995 7.5475733 24 5 C26.4375 5.6875 26.4375 5.6875 29 7 C29.99609375 9.1796875 29.99609375 9.1796875 30 12 C26.88054568 16.49179377 22.80396204 21.23983189 18 24 C15.4678014 24.08805473 13.89994292 23.83699673 11.55078125 22.875 C8.10257141 21.69215313 5.01185733 21.75 1.375 21.75 C-0.46964844 21.74226563 -0.46964844 21.74226563 -2.3515625 21.734375 C-6.14181206 22.01032465 -9.36982333 22.91754732 -13 24 C-15.9375 23.625 -15.9375 23.625 -18 23 C-18.03738281 22.33613281 -18.07476562 21.67226562 -18.11328125 20.98828125 C-18.50002207 15.79382119 -19.02963036 12.39098121 -22 8 C-22 6.68 -22 5.36 -22 4 C-18.91190305 2.23537317 -17.76687864 2 -14 2 C-12.68 4.31 -11.36 6.62 -10 9 C-7.03 9 -4.06 9 -1 9 C-0.67 6.03 -0.34 3.06 0 0 Z " fill="#3B3B3B" transform="translate(138,64)"/>
<path d="M0 0 C0.33 1.65 0.66 3.3 1 5 C-0.65 6.32 -2.3 7.64 -4 9 C-3.41070989 12.03063487 -2.74955438 15.0017825 -2 18 C0.97 18 3.94 18 7 18 C8.88343932 21.76687864 9.22057835 23.02958963 9 27 C4.545 28.485 4.545 28.485 0 30 C0 32.64 0 35.28 0 38 C2.31 38.99 4.62 39.98 7 41 C7.125 44.375 7.125 44.375 7 48 C5 50 5 50 2.84521484 50.13525391 C1.97590332 50.08288574 1.1065918 50.03051758 0.2109375 49.9765625 C-0.73007813 49.925 -1.67109375 49.8734375 -2.640625 49.8203125 C-3.62546875 49.75585938 -4.6103125 49.69140625 -5.625 49.625 C-7.11386719 49.53992188 -7.11386719 49.53992188 -8.6328125 49.453125 C-11.08924767 49.31140759 -13.54469735 49.15997723 -16 49 C-16.58862305 47.17260742 -16.58862305 47.17260742 -17 45 C-16.53207031 44.08863281 -16.06414062 43.17726562 -15.58203125 42.23828125 C-13.72683322 38.44085121 -13.58861394 35.3130264 -13.6875 31.1875 C-13.68266602 30.1965332 -13.68266602 30.1965332 -13.67773438 29.18554688 C-13.71924884 25.28696094 -14.24470108 22.17675067 -15.44140625 18.4609375 C-16.11526795 15.65272694 -16.29405663 14.53287716 -14.88354492 11.97680664 C-13.11731819 9.96064458 -11.26494053 8.20441827 -9.25 6.4375 C-8.59 5.81037109 -7.93 5.18324219 -7.25 4.53710938 C-2.38138972 0 -2.38138972 0 0 0 Z " fill="#3D3D3D" transform="translate(185,87)"/>
<path d="M0 0 C4.29 0 8.58 0 13 0 C13 1.65 13 3.3 13 5 C12.34 5 11.68 5 11 5 C11 6.65 11 8.3 11 10 C12.98 10 14.96 10 17 10 C17 8.35 17 6.7 17 5 C16.34 5 15.68 5 15 5 C15 3.35 15 1.7 15 0 C19.29 0 23.58 0 28 0 C28 1.65 28 3.3 28 5 C27.01 5 26.02 5 25 5 C25 9.95 25 14.9 25 20 C25.66 20 26.32 20 27 20 C27 21.65 27 23.3 27 25 C23.04 25 19.08 25 15 25 C15 23.35 15 21.7 15 20 C15.66 20 16.32 20 17 20 C17 18.35 17 16.7 17 15 C15.02 15 13.04 15 11 15 C11 16.65 11 18.3 11 20 C11.66 20 12.32 20 13 20 C13 21.65 13 23.3 13 25 C8.71 25 4.42 25 0 25 C0 23.35 0 21.7 0 20 C0.99 20 1.98 20 3 20 C3 15.05 3 10.1 3 5 C2.01 5 1.02 5 0 5 C0 3.35 0 1.7 0 0 Z " fill="#393939" transform="translate(102,187)"/>
<path d="M0 0 C1.32 0.66 2.64 1.32 4 2 C3.42206171 5.27572232 2.49781817 6.85310835 0.09375 9.12890625 C-0.48503906 9.68900391 -1.06382812 10.24910156 -1.66015625 10.82617188 C-2.57087891 11.6856543 -2.57087891 11.6856543 -3.5 12.5625 C-4.70241377 13.70492073 -5.90053434 14.85188178 -7.09375 16.00390625 C-7.62677734 16.50736572 -8.15980469 17.0108252 -8.70898438 17.52954102 C-10.24459651 19.08666628 -10.24459651 19.08666628 -11 22 C-10.34 22.33 -9.68 22.66 -9 23 C-10.0828125 23.556875 -10.0828125 23.556875 -11.1875 24.125 C-17.75913275 28.5060885 -19.98256541 33.61914173 -22 41 C-22.33 40.34 -22.66 39.68 -23 39 C-29.30347455 41.99715719 -29.30347455 41.99715719 -35 46 C-38.16115776 44.63016497 -38.9927092 44.0109362 -41 41 C-38.69 37.37 -36.38 33.74 -34 30 C-34.66 30 -35.32 30 -36 30 C-34.24329325 26.4865865 -30.16414134 25.36809345 -26.76171875 23.6328125 C-24.03634281 22.02148698 -22.20106782 20.24479764 -20 18 C-19.34 18 -18.68 18 -18 18 C-17.67 17.01 -17.34 16.02 -17 15 C-17 15.66 -17 16.32 -17 17 C-16.34 17 -15.68 17 -15 17 C-14.67 16.01 -14.34 15.02 -14 14 C-12.37275065 12.27104756 -10.7130063 10.64113191 -9 9 C-7.39314404 7.39852714 -5.78914241 5.79418696 -4.1875 4.1875 C-2.79166667 2.79166667 -1.39583333 1.39583333 0 0 Z " fill="#9C9894" transform="translate(131,122)"/>
<path d="M0 0 C0 6.93 0 13.86 0 21 C0.66 21 1.32 21 2 21 C2 22.32 2 23.64 2 25 C-0.91889148 25.16216064 -3.82879225 25.28091202 -6.75 25.375 C-7.9875 25.45041016 -7.9875 25.45041016 -9.25 25.52734375 C-11.63673821 25.58508742 -13.67649312 25.55695496 -16 25 C-18.76124086 21.9296018 -19.83718767 19.99722552 -20.5 15.9375 C-19.86005025 12.1777952 -18.83944877 10.54055943 -16 8 C-12.81894588 7.61827351 -10.87470493 7.56264754 -8 9 C-8 8.01 -8 7.02 -8 6 C-8.66 6 -9.32 6 -10 6 C-10 4.35 -10 2.7 -10 1 C-3.375 0 -3.375 0 0 0 Z " fill="#3F3F3F" transform="translate(191,187)"/>
<path d="M0 0 C2.97 0 5.94 0 9 0 C9 2.97 9 5.94 9 9 C9.99 8.34 10.98 7.68 12 7 C17.17218326 6.46123091 17.17218326 6.46123091 19.64453125 8.0703125 C21.69527198 10.98981083 21.52597799 13.66632021 21.6875 17.1875 C21.78611328 19.09595703 21.78611328 19.09595703 21.88671875 21.04296875 C21.92410156 22.01878906 21.96148437 22.99460938 22 24 C19.03 24 16.06 24 13 24 C13 20.04 13 16.08 13 12 C12.01 12 11.02 12 10 12 C10.33 15.96 10.66 19.92 11 24 C7.37 24 3.74 24 0 24 C0 22.68 0 21.36 0 20 C0.66 20 1.32 20 2 20 C2 15.05 2 10.1 2 5 C1.34 5 0.68 5 0 5 C0 3.35 0 1.7 0 0 Z " fill="#3E3E3E" transform="translate(49,188)"/>
<path d="M0 0 C3.63 0 7.26 0 11 0 C10.67 2.97 10.34 5.94 10 9 C10.66 9 11.32 9 12 9 C12.66 6.03 13.32 3.06 14 0 C15.65 0 17.3 0 19 0 C20.31626692 3.61973402 21 6.09567131 21 10 C21.66 10 22.32 10 23 10 C23.33 8.02 23.66 6.04 24 4 C23.34 4 22.68 4 22 4 C22 2.68 22 1.36 22 0 C24.64 0 27.28 0 30 0 C30 1.32 30 2.64 30 4 C29.34 4 28.68 4 28 4 C27.87625 4.845625 27.7525 5.69125 27.625 6.5625 C26.97229673 10.15236798 26.04752537 13.50824875 25 17 C22.36 17 19.72 17 17 17 C16.67 15.02 16.34 13.04 16 11 C15.34 11 14.68 11 14 11 C14.020625 11.804375 14.04125 12.60875 14.0625 13.4375 C14 16 14 16 13 17 C10.32941149 17.14115161 7.67567762 17.04247107 5 17 C4.80664062 16.14535156 4.61328125 15.29070312 4.4140625 14.41015625 C4.15367187 13.30542969 3.89328125 12.20070312 3.625 11.0625 C3.36976563 9.96035156 3.11453125 8.85820312 2.8515625 7.72265625 C2.57054687 6.82417969 2.28953125 5.92570313 2 5 C1.34 4.67 0.68 4.34 0 4 C0 2.68 0 1.36 0 0 Z " fill="#3C3C3C" transform="translate(195,195)"/>
<path d="M0 0 C3.69219111 0.57693306 5.40968317 2.02636316 8.03417969 4.63012695 C8.81468689 5.39794998 9.59519409 6.16577301 10.39935303 6.9568634 C11.23178528 7.79223129 12.06421753 8.62759918 12.921875 9.48828125 C13.78186096 10.34302536 14.64184692 11.19776947 15.52789307 12.07841492 C17.34382897 13.88792618 19.15588944 15.70133371 20.96435547 17.51831055 C23.74084288 20.30331479 26.53546608 23.06915921 29.33203125 25.83398438 C31.0922771 27.59261842 32.85142951 29.35234774 34.609375 31.11328125 C35.44990417 31.94257645 36.29043335 32.77187164 37.15643311 33.626297 C37.92433167 34.40357651 38.69223022 35.18085602 39.48339844 35.98168945 C40.16416443 36.66262161 40.84493042 37.34355377 41.54632568 38.04512024 C43 40 43 40 43 44 C41.68 44 40.36 44 39 44 C37.76935609 42.60305285 36.5488617 41.19370376 35.41796875 39.71484375 C33.42678236 37.30676985 31.09338662 35.43177432 28.69921875 33.4375 C25.46402394 30.70059956 22.60560503 27.77593145 20 24.4375 C17.88121393 21.85522947 15.62797078 20.05109914 13 18 C10.46060949 15.5844822 8.15688282 13.20100612 6 10.4375 C3.895311 7.87241028 1.64772004 5.98579003 -1 4 C-0.67 2.68 -0.34 1.36 0 0 Z " fill="#40403F" transform="translate(118,96)"/>
<path d="M0 0 C1.12921875 -0.03867188 1.12921875 -0.03867188 2.28125 -0.078125 C5.17708835 0.35013278 6.47572686 1.13910256 8.5 3.25 C8.890625 5.73046875 8.890625 5.73046875 8.75 8.4375 C8.71390625 9.33855469 8.6778125 10.23960937 8.640625 11.16796875 C8.57101563 12.19857422 8.57101563 12.19857422 8.5 13.25 C9.16 13.25 9.82 13.25 10.5 13.25 C10.5 14.57 10.5 15.89 10.5 17.25 C7.54112541 17.33069658 4.5844341 17.39034665 1.625 17.4375 C0.78324219 17.46263672 -0.05851563 17.48777344 -0.92578125 17.51367188 C-1.73144531 17.52333984 -2.53710938 17.53300781 -3.3671875 17.54296875 C-4.48262939 17.56653442 -4.48262939 17.56653442 -5.62060547 17.59057617 C-6.24080566 17.47818604 -6.86100586 17.3657959 -7.5 17.25 C-9.64915785 14.02626323 -9.88286803 12.98296326 -9.5 9.25 C-7.5 7.25 -7.5 7.25 -5.5546875 7.0546875 C-3.53645833 7.11979167 -1.51822917 7.18489583 0.5 7.25 C0.5 6.59 0.5 5.93 0.5 5.25 C-2.47 5.25 -5.44 5.25 -8.5 5.25 C-8.5 3.93 -8.5 2.61 -8.5 1.25 C-5.6250877 0.43979744 -2.98599334 0.06135603 0 0 Z " fill="#3C3C3C" transform="translate(237.5,194.75)"/>
<path d="M0 0 C1.26070313 -0.03867188 1.26070313 -0.03867188 2.546875 -0.078125 C6.12011247 0.35562059 8.30278484 1.15992621 11.25 3.25 C12.0546875 6.60546875 12.0546875 6.60546875 12.125 10.4375 C12.16367188 11.70980469 12.20234375 12.98210937 12.2421875 14.29296875 C12.24605469 15.75669922 12.24605469 15.75669922 12.25 17.25 C9.61 17.25 6.97 17.25 4.25 17.25 C4.25 16.59 4.25 15.93 4.25 15.25 C3.26 15.91 2.27 16.57 1.25 17.25 C-1.8125 17.5 -1.8125 17.5 -4.75 17.25 C-6.75 15.25 -6.75 15.25 -7 12.25 C-6.75 9.25 -6.75 9.25 -4.75 7.25 C-2.06160615 6.98008094 0.54141936 7.16262643 3.25 7.25 C3.25 6.59 3.25 5.93 3.25 5.25 C-0.2719721 5.16995518 -3.36981469 5.20994298 -6.75 6.25 C-6.75 4.6 -6.75 2.95 -6.75 1.25 C-4.33878742 0.04439371 -2.69053653 0.04891885 0 0 Z " fill="#404040" transform="translate(80.75,194.75)"/>
<path d="M0 0 C1.89551022 -0.05441656 3.7914792 -0.09298035 5.6875 -0.125 C6.74324219 -0.14820313 7.79898438 -0.17140625 8.88671875 -0.1953125 C12 0 12 0 17 2 C17 5.63 17 9.26 17 13 C17.66 13 18.32 13 19 13 C19 14.32 19 15.64 19 17 C13.06 17 7.12 17 1 17 C-0.39431504 14.21136993 -0.25660094 12.07921132 0 9 C3.18762365 6.87491756 5.26512223 6.4979837 9 6 C8.01732141 4.79438816 8.01732141 4.79438816 6.15234375 4.90234375 C4.1015625 4.93489583 2.05078125 4.96744792 0 5 C0 3.35 0 1.7 0 0 Z " fill="#404040" transform="translate(133,195)"/>
<path d="M0 0 C4.62 0 9.24 0 14 0 C14 1.65 14 3.3 14 5 C13.01 5 12.02 5 11 5 C11 9.95 11 14.9 11 20 C11.99 20 12.98 20 14 20 C14 21.65 14 23.3 14 25 C9.71 25 5.42 25 1 25 C1 23.35 1 21.7 1 20 C1.66 20 2.32 20 3 20 C3 15.05 3 10.1 3 5 C2.01 5 1.02 5 0 5 C0 3.35 0 1.7 0 0 Z " fill="#3B3B3B" transform="translate(14,187)"/>
<path d="M0 0 C2.125 1.875 2.125 1.875 2.4375 5.0625 C2.334375 5.990625 2.23125 6.91875 2.125 7.875 C-1.175 7.875 -4.475 7.875 -7.875 7.875 C-5.14605698 11.27422928 -5.14605698 11.27422928 -1.1875 11.0625 C-0.094375 11.000625 0.99875 10.93875 2.125 10.875 C2.125 12.195 2.125 13.515 2.125 14.875 C-1.82192443 16.84846221 -6.57157247 16.30724974 -10.875 15.875 C-13.5625 14.4375 -13.5625 14.4375 -14.875 11.875 C-15.34109282 8.80100684 -15.4994143 5.92956726 -14.875 2.875 C-11.0702707 -1.99460981 -5.46551914 -2.1386814 0 0 Z " fill="#464646" transform="translate(281.875,196.125)"/>
<path d="M0 0 C1.32 0.66 2.64 1.32 4 2 C3.53149744 6.30728345 0.76470312 8.73685696 -2.13671875 11.67578125 C-2.91230888 12.46990669 -2.91230888 12.46990669 -3.7035675 13.28007507 C-4.79822161 14.3942672 -5.89706042 15.50436134 -6.99975586 16.6105957 C-8.6820731 18.30702757 -10.33591563 20.02826369 -11.99023438 21.75195312 C-13.05824724 22.83236134 -14.12785773 23.91119307 -15.19921875 24.98828125 C-15.69008469 25.50586502 -16.18095062 26.02344879 -16.68669128 26.55671692 C-18.1315918 27.97387695 -18.1315918 27.97387695 -21 30 C-24.18286133 29.78588867 -24.18286133 29.78588867 -27 29 C-29.76864953 29.36858988 -29.76864953 29.36858988 -32 30 C-32 29.34 -32 28.68 -32 28 C-31.3709375 27.74347656 -30.741875 27.48695313 -30.09375 27.22265625 C-22.96559632 24.0343104 -18.87263073 19.99708398 -14 14 C-12.3545622 12.31237149 -10.68711423 10.6459651 -9 9 C-7.39447329 7.39719453 -5.7904178 5.79291456 -4.1875 4.1875 C-2.79166667 2.79166667 -1.39583333 1.39583333 0 0 Z " fill="#3F3F3F" transform="translate(131,122)"/>
<path d="M0 0 C1.77503906 0.03480469 1.77503906 0.03480469 3.5859375 0.0703125 C5.36871094 0.09738281 5.36871094 0.09738281 7.1875 0.125 C8.10273437 0.14820313 9.01796875 0.17140625 9.9609375 0.1953125 C9.9609375 1.5153125 9.9609375 2.8353125 9.9609375 4.1953125 C7.6509375 3.8653125 5.3409375 3.5353125 2.9609375 3.1953125 C2.9609375 3.8553125 2.9609375 4.5153125 2.9609375 5.1953125 C3.9096875 5.4840625 4.8584375 5.7728125 5.8359375 6.0703125 C8.9609375 7.1953125 8.9609375 7.1953125 10.9609375 9.1953125 C11.34380553 12.92827576 11.11009535 13.97157573 8.9609375 17.1953125 C5.703125 17.48828125 5.703125 17.48828125 1.8359375 17.3828125 C0.55460937 17.35574219 -0.72671875 17.32867187 -2.046875 17.30078125 C-3.03429688 17.26597656 -4.02171875 17.23117188 -5.0390625 17.1953125 C-5.0390625 15.2153125 -5.0390625 13.2353125 -5.0390625 11.1953125 C-2.11026879 11.82291115 0.32189379 12.78153909 2.9609375 14.1953125 C1.15259441 12.29179346 -0.55555381 10.83496973 -2.7265625 9.3203125 C-5.0390625 7.1953125 -5.0390625 7.1953125 -5.4765625 4.5703125 C-4.78841926 0.83467779 -3.74186338 0.24047965 0 0 Z " fill="#424242" transform="translate(35.0390625,194.8046875)"/>
<path d="M0 0 C4.95 0 9.9 0 15 0 C15 1.98 15 3.96 15 6 C13.35 6 11.7 6 10 6 C10 7.98 10 9.96 10 12 C10.66 12 11.32 12 12 12 C12 13.65 12 15.3 12 17 C8.04 17 4.08 17 0 17 C0 15.68 0 14.36 0 13 C0.66 13 1.32 13 2 13 C2 10.36 2 7.72 2 5 C1.34 5 0.68 5 0 5 C0 3.35 0 1.7 0 0 Z " fill="#414141" transform="translate(154,195)"/>
<path d="M0 0 C0.33 0.66 0.66 1.32 1 2 C2.98 1.34 4.96 0.68 7 0 C7 1.98 7 3.96 7 6 C5.35 6 3.7 6 2 6 C2 7.98 2 9.96 2 12 C2.66 12 3.32 12 4 12 C4 13.65 4 15.3 4 17 C0.04 17 -3.92 17 -8 17 C-8 15.68 -8 14.36 -8 13 C-7.34 13 -6.68 13 -6 13 C-6 10.36 -6 7.72 -6 5 C-6.66 5 -7.32 5 -8 5 C-8 3.68 -8 2.36 -8 1 C-5.36 0.67 -2.72 0.34 0 0 Z " fill="#3C3C3C" transform="translate(258,195)"/>
<path d="M0 0 C1.32 0 2.64 0 4 0 C2.36257349 4.21197653 -0.75920071 6.99484789 -3.92578125 10.0859375 C-4.5103862 10.66534088 -5.09499115 11.24474426 -5.6973114 11.84170532 C-7.56434332 13.6909628 -9.43791405 15.53340291 -11.3125 17.375 C-13.17552992 19.21027394 -15.03703086 21.0470329 -16.89555359 22.88687134 C-18.05030097 24.02951391 -19.20771008 25.16947521 -20.36824036 26.3062439 C-22.99607519 28.90192342 -25.45952536 31.51278532 -27.77026367 34.39697266 C-28.50607666 35.25597168 -29.24188965 36.1149707 -30 37 C-30.66 37 -31.32 37 -32 37 C-31.14308263 29.85482138 -25.62172635 25.19493369 -20.3125 20.75 C-19.549375 20.1725 -18.78625 19.595 -18 19 C-14.29136491 15.3989533 -10.78668299 11.63646468 -7.3125 7.8125 C-2.22466216 2.22466216 -2.22466216 2.22466216 0 0 Z " fill="#474747" transform="translate(178,67)"/>
<path d="M0 0 C-0.46707887 4.34586428 -3.06659251 6.33326261 -6.125 9.25 C-9.33556914 12.35783092 -12.49306486 15.45452142 -15.375 18.875 C-18.67764195 22.71602884 -22.15381378 26.37247315 -25.6875 30 C-26.24679199 30.58894043 -26.80608398 31.17788086 -27.38232422 31.78466797 C-28.84545807 33.26884779 -30.41791118 34.64333299 -32 36 C-33.32 36 -34.64 36 -36 36 C-36 34 -36 34 -33.92260742 31.80200195 C-32.94933641 30.86703071 -31.97504944 29.93311643 -31 29 C-29.93073021 27.9266694 -28.86490022 26.84990423 -27.80200195 25.77026367 C-24.65354311 22.58638201 -21.49913479 19.40846994 -18.3425293 16.23266602 C-16.98203391 14.86202623 -15.62332623 13.4896098 -14.26635742 12.11547852 C-12.30330991 10.1283039 -10.3339891 8.14754294 -8.36328125 6.16796875 C-7.75494949 5.54931442 -7.14661774 4.9306601 -6.51985168 4.29325867 C-2.22774198 0 -2.22774198 0 0 0 Z " fill="#525251" transform="translate(189,76)"/>
<path d="M0 0 C-0.58339752 3.35465726 -1.61130571 4.98051612 -4.01928711 7.35986328 C-4.65342026 7.99376984 -5.28755341 8.62767639 -5.94090271 9.28079224 C-6.97369102 10.29035477 -6.97369102 10.29035477 -8.02734375 11.3203125 C-8.73145889 12.0201828 -9.43557404 12.7200531 -10.161026 13.44113159 C-12.41290854 15.67622497 -14.67498762 17.90067247 -16.9375 20.125 C-18.45836733 21.63081885 -19.97855802 23.13732142 -21.49804688 24.64453125 C-24.84292653 27.95990155 -28.19425634 31.26859033 -31.55137634 34.57156372 C-32.7055719 35.70967492 -33.85381841 36.85381841 -35 38 C-35.66 37.01 -36.32 36.02 -37 35 C-36.3702124 34.37544922 -35.7404248 33.75089844 -35.09155273 33.10742188 C-32.72064355 30.75371686 -30.352126 28.39765427 -27.98510742 26.04003906 C-26.96682708 25.02673848 -25.94764526 24.01434288 -24.92749023 23.00292969 C-19.58375643 17.70379258 -14.30221864 12.40341435 -9.45263672 6.63867188 C-3.56764005 0 -3.56764005 0 0 0 Z " fill="#414141" transform="translate(186,71)"/>
<path d="M0 0 C1.32 0.99 2.64 1.98 4 3 C3.67 3.99 3.34 4.98 3 6 C3 5.34 3 4.68 3 4 C-3.8771514 9.77046901 -10.18640629 16.06933674 -16.5 22.4375 C-17.52320139 23.4657298 -18.54663733 24.49372626 -19.5703125 25.52148438 C-22.04957999 28.01164338 -24.52567538 30.50492833 -27 33 C-27 27.99465653 -23.82994517 24.90125764 -20.54223633 21.33105469 C-19.64786865 20.45352539 -18.75350098 19.57599609 -17.83203125 18.671875 C-17.35174973 18.19679504 -16.8714682 17.72171509 -16.37663269 17.23223877 C-14.86000334 15.73324734 -13.33678324 14.24120439 -11.8125 12.75 C-10.27844997 11.24360568 -8.74591576 9.73574307 -7.2162323 8.22491455 C-5.83727993 6.86374977 -4.45355004 5.50742999 -3.06958008 4.15136719 C-0.96413672 2.17643155 -0.96413672 2.17643155 0 0 Z " fill="#95928E" transform="translate(186,72)"/>
<path d="M0 0 C0.77321882 2.98241547 1.41196203 5.97580475 2 9 C4.31 9.33 6.62 9.66 9 10 C9.33 9.01 9.66 8.02 10 7 C10 8.32 10 9.64 10 11 C7.04112541 11.08069658 4.0844341 11.14034665 1.125 11.1875 C-0.13763672 11.22520508 -0.13763672 11.22520508 -1.42578125 11.26367188 C-2.23144531 11.27333984 -3.03710938 11.28300781 -3.8671875 11.29296875 C-4.61081543 11.3086792 -5.35444336 11.32438965 -6.12060547 11.34057617 C-6.74080566 11.22818604 -7.36100586 11.1157959 -8 11 C-10.14915785 7.77626323 -10.38286803 6.73296326 -10 3 C-6.99382731 -0.00617269 -4.17618402 0.40414684 0 0 Z " fill="#5D5D5D" transform="translate(238,201)"/>
<path d="M0 0 C0 3.42229689 -0.43776478 6.62658866 -1 10 C-2 11 -2 11 -4.9375 11.1875 C-8 11 -8 11 -10 9 C-10.25 6 -10.25 6 -10 3 C-6.99382731 -0.00617269 -4.17618402 0.40414684 0 0 Z " fill="#585858" transform="translate(84,201)"/>
<path d="M0 0 C0 0.99 0 1.98 0 3 C-0.99 3.33 -1.98 3.66 -3 4 C-3 4.99 -3 5.98 -3 7 C-2.01 7 -1.02 7 0 7 C-0.33 7.99 -0.66 8.98 -1 10 C-7.15234375 10.09765625 -7.15234375 10.09765625 -9 10 C-10 9 -10 9 -10.25 6.0625 C-10.1675 5.051875 -10.085 4.04125 -10 3 C-6.55549263 0.70366176 -4.06187717 0.45983515 0 0 Z " fill="#3A3A3A" transform="translate(143,201)"/>
<path d="M0 0 C0.99 0.99 1.98 1.98 3 3 C2.32453125 3.59167969 1.6490625 4.18335937 0.953125 4.79296875 C-0.38492188 5.97826172 -0.38492188 5.97826172 -1.75 7.1875 C-2.63171875 7.96480469 -3.5134375 8.74210937 -4.421875 9.54296875 C-7.06486831 11.93373328 -7.06486831 11.93373328 -9.140625 14.80078125 C-9.75421875 15.52652344 -10.3678125 16.25226563 -11 17 C-11.99 17 -12.98 17 -14 17 C-13.4194679 13.69881206 -12.45131901 12.08865924 -10.05859375 9.765625 C-9.18364258 8.90517578 -9.18364258 8.90517578 -8.29101562 8.02734375 C-7.67935547 7.44082031 -7.06769531 6.85429688 -6.4375 6.25 C-5.82197266 5.64800781 -5.20644531 5.04601562 -4.57226562 4.42578125 C-3.05485187 2.94365619 -1.52829404 1.4709033 0 0 Z " fill="#938F8C" transform="translate(182,68)"/>
<path d="M0 0 C1.65 0 3.3 0 5 0 C8.49595688 6.08973134 9.71311275 10.99995111 10 18 C11.98 18 13.96 18 16 18 C14.68 19.32 13.36 20.64 12 22 C9.625 20.75 9.625 20.75 7 18 C6.335301 14.98727337 5.98319737 11.99024946 5.6015625 8.9296875 C4.74169332 4.74201292 3.05765275 2.89672365 0 0 Z " fill="#C1C1C1" transform="translate(111,69)"/>
<path d="M0 0 C-0.4305067 4.41006862 -3.4217054 6.83000573 -6.4375 9.75 C-6.94087891 10.25660156 -7.44425781 10.76320313 -7.96289062 11.28515625 C-11.73280618 15 -11.73280618 15 -14 15 C-13.5694933 10.58993138 -10.5782946 8.16999427 -7.5625 5.25 C-7.05912109 4.74339844 -6.55574219 4.23679687 -6.03710938 3.71484375 C-2.26719382 0 -2.26719382 0 0 0 Z " fill="#403F3F" transform="translate(189,76)"/>
<path d="M0 0 C-0.58218193 3.50861642 -1.81713692 5.24929353 -4.3125 7.75 C-5.20388672 8.67039062 -5.20388672 8.67039062 -6.11328125 9.609375 C-8 11 -8 11 -12 11 C-12 9 -12 9 -9.75 6.625 C-8.8425 5.75875 -7.935 4.8925 -7 4 C-6.29875 3.236875 -5.5975 2.47375 -4.875 1.6875 C-3 0 -3 0 0 0 Z " fill="#4B4B4A" transform="translate(165,101)"/>
<path d="M0 0 C0.99 0.33 1.98 0.66 3 1 C2.23456474 7.69755853 -2.29675841 11.53192049 -7 16 C-8.31175986 17.02813611 -9.6369893 18.04084432 -11 19 C-11.99 18.34 -12.98 17.68 -14 17 C-13.27425781 16.59523438 -12.54851562 16.19046875 -11.80078125 15.7734375 C-8.91960081 13.94909172 -6.63067952 11.99930049 -4.1875 9.625 C-3.39730469 8.87476562 -2.60710937 8.12453125 -1.79296875 7.3515625 C0.28313046 4.62866114 0.39542717 3.34047427 0 0 Z " fill="#A9A9A9" transform="translate(167,71)"/>
<path d="M0 0 C0.33 0.66 0.66 1.32 1 2 C1.66 2.33 2.32 2.66 3 3 C2.278125 3.37125 1.55625 3.7425 0.8125 4.125 C-5.75913275 8.5060885 -7.98256541 13.61914173 -10 21 C-10.66 20.01 -11.32 19.02 -12 18 C-10.017223 10.54380865 -5.81201084 4.90754805 0 0 Z " fill="#B8B8B8" transform="translate(119,142)"/>
<path d="M0 0 C0.66 0.99 1.32 1.98 2 3 C-2.87802099 8.60487843 -8.01656861 12.35069124 -15 15 C-15.99 15 -16.98 15 -18 15 C-16.24329325 11.4865865 -12.16414134 10.36809345 -8.76171875 8.6328125 C-6.03634281 7.02148698 -4.20106782 5.24479764 -2 3 C-1.34 3 -0.68 3 0 3 C0 2.01 0 1.02 0 0 Z " fill="#C0C0C0" transform="translate(113,137)"/>
<path d="M0 0 C1.32 0.33 2.64 0.66 4 1 C4.12117187 1.89203125 4.24234375 2.7840625 4.3671875 3.703125 C4.53476563 4.87359375 4.70234375 6.0440625 4.875 7.25 C5.03742188 8.41015625 5.19984375 9.5703125 5.3671875 10.765625 C5.91820431 13.58193313 6.55796482 15.55217557 8 18 C7.34 18.99 6.68 19.98 6 21 C5.525625 19.88625 5.05125 18.7725 4.5625 17.625 C3.74693537 15.73289006 2.92143645 13.84287291 2 12 C1.68879716 9.44122107 1.49035334 6.88148388 1.28125 4.3125 C1.12863953 1.97731545 1.12863953 1.97731545 0 0 Z " fill="#CFCECC" transform="translate(157,146)"/>
<path d="M0 0 C-0.57889381 3.28754511 -1.54828411 4.93672495 -3.9375 7.25 C-4.46214844 7.77078125 -4.98679687 8.2915625 -5.52734375 8.828125 C-7 10 -7 10 -9 10 C-8.69121904 6.39755548 -8.00552268 5.00654002 -5.625 2.1875 C-3 0 -3 0 0 0 Z " fill="#4C4B4B" transform="translate(114,82)"/>
<path d="M0 0 C1.98 0 3.96 0 6 0 C6 1.65 6 3.3 6 5 C5.34 5 4.68 5 4 5 C4 6.65 4 8.3 4 10 C3.34 10 2.68 10 2 10 C2 8.35 2 6.7 2 5 C1.34 5 0.68 5 0 5 C0 3.35 0 1.7 0 0 Z " fill="#ECECEC" transform="translate(113,202)"/>
<path d="M0 0 C0.66 0 1.32 0 2 0 C2 1.65 2 3.3 2 5 C2.66 5 3.32 5 4 5 C4 6.65 4 8.3 4 10 C2.02 10 0.04 10 -2 10 C-2 8.35 -2 6.7 -2 5 C-1.34 5 -0.68 5 0 5 C0 3.35 0 1.7 0 0 Z " fill="#DCDCDC" transform="translate(115,187)"/>
<path d="M0 0 C-0.47241991 4.25177923 -2.84964071 6.29969203 -6 9 C-6.99 9 -7.98 9 -9 9 C-8.44706396 4.02357564 -5.06735917 0 0 0 Z " fill="#4A4948" transform="translate(175,144)"/>
<path d="M0 0 C3.3 0 6.6 0 10 0 C10.33 2.31 10.66 4.62 11 7 C10.67 5.68 10.34 4.36 10 3 C8.3603125 3.309375 8.3603125 3.309375 6.6875 3.625 C3 4 3 4 0 2 C0 1.34 0 0.68 0 0 Z " fill="#C9C9C9" transform="translate(274,204)"/>
<path d="M0 0 C1.32 0 2.64 0 4 0 C4 2.64 4 5.28 4 8 C0.125 7.125 0.125 7.125 -1 6 C-1.125 3.5 -1.125 3.5 -1 1 C-0.67 0.67 -0.34 0.34 0 0 Z " fill="#E6E6E6" transform="translate(179,200)"/>
<path d="M0 0 C0.33 0 0.66 0 1 0 C1.33 2.31 1.66 4.62 2 7 C-1.59462331 9.25998595 -4.56595675 9.20868087 -8.75 9.125 C-9.92046875 9.10695312 -11.0909375 9.08890625 -12.296875 9.0703125 C-13.63492188 9.03550781 -13.63492188 9.03550781 -15 9 C-15 8.67 -15 8.34 -15 8 C-11.04 8 -7.08 8 -3 8 C-3 6.35 -3 4.7 -3 3 C-2.34 3 -1.68 3 -1 3 C-0.67 2.01 -0.34 1.02 0 0 Z " fill="#ACACAC" transform="translate(132,204)"/>
<path d="M0 0 C0 3.81307353 -1.03542447 5.74828878 -3 9 C-5.6875 10.875 -5.6875 10.875 -8 12 C-8.33 11.34 -8.66 10.68 -9 10 C-7.8758824 8.70756532 -6.75067408 7.41607925 -5.625 6.125 C-4.99851563 5.40570313 -4.37203125 4.68640625 -3.7265625 3.9453125 C-2.52573166 2.5923402 -1.2791655 1.2791655 0 0 Z " fill="#888581" transform="translate(160,99)"/>
<path d="M0 0 C0.99 0 1.98 0 3 0 C0.81777792 8.95859592 0.81777792 8.95859592 -3.1875 11.5625 C-4.115625 12.036875 -5.04375 12.51125 -6 13 C-6.66 12.67 -7.32 12.34 -8 12 C-6.576875 10.9790625 -6.576875 10.9790625 -5.125 9.9375 C-1.5622062 7.01332019 -0.8726412 4.4504701 0 0 Z " fill="#7B7A79" transform="translate(108,151)"/>
<path d="M0 0 C0 3.54404336 -0.60989485 4.10267905 -2.875 6.6875 C-3.40867188 7.31011719 -3.94234375 7.93273437 -4.4921875 8.57421875 C-6 10 -6 10 -8 10 C-7.9375 7.8125 -7.9375 7.8125 -7 5 C-4.8282781 3.06842043 -2.47398953 1.51798313 0 0 Z " fill="#414141" transform="translate(154,94)"/>
<path d="M0 0 C0.99 0 1.98 0 3 0 C3 3.96 3 7.92 3 12 C2.34 12 1.68 12 1 12 C0.01751476 7.9472484 -0.08159574 4.16138263 0 0 Z " fill="#F0F0F0" transform="translate(59,200)"/>
<path d="M0 0 C0.99 0.33 1.98 0.66 3 1 C-0.49359465 4.59634744 -4.11098131 7.83451967 -8 11 C-8.66 10.67 -9.32 10.34 -10 10 C-6.7 6.7 -3.4 3.4 0 0 Z " fill="#626262" transform="translate(131,122)"/>
<path d="M0 0 C0.33 1.32 0.66 2.64 1 4 C3.64 3.67 6.28 3.34 9 3 C9.99 4.485 9.99 4.485 11 6 C9.54364629 6.22174933 8.08477044 6.42698698 6.625 6.625 C5.81289062 6.74101562 5.00078125 6.85703125 4.1640625 6.9765625 C3.44992188 6.98429688 2.73578125 6.99203125 2 7 C0 5 0 5 -0.125 2.375 C-0.08375 1.59125 -0.0425 0.8075 0 0 Z " fill="#D2D2D2" transform="translate(132,196)"/>
<path d="M0 0 C0.99 0.66 1.98 1.32 3 2 C1.75160501 3.105981 0.50120766 4.20970201 -0.75 5.3125 C-1.44609375 5.92738281 -2.1421875 6.54226562 -2.859375 7.17578125 C-4.85114506 8.87314734 -6.88898915 10.45477809 -9 12 C-7.55575365 8.76138697 -5.74227753 6.38030837 -3.375 3.75 C-2.74335938 3.04359375 -2.11171875 2.3371875 -1.4609375 1.609375 C-0.97882813 1.07828125 -0.49671875 0.5471875 0 0 Z " fill="#BEBEBE" transform="translate(182,85)"/>
<path d="M0 0 C0.66 0.33 1.32 0.66 2 1 C-0.31 3.64 -2.62 6.28 -5 9 C-6.32 8.34 -7.64 7.68 -9 7 C-7.88625 6.38125 -7.88625 6.38125 -6.75 5.75 C-4.09828315 4.06254382 -2.13325986 2.29127911 0 0 Z " fill="#C3C3C3" transform="translate(162,81)"/>
<path d="M0 0 C0.99 0.33 1.98 0.66 3 1 C2.34 3.64 1.68 6.28 1 9 C0.34 9 -0.32 9 -1 9 C-0.67 6.03 -0.34 3.06 0 0 Z " fill="#DBDBDB" transform="translate(206,195)"/>
<path d="M0 0 C3.44429252 1.53079667 6.09516673 3.61654706 9 6 C9.99 6.66 10.98 7.32 12 8 C9.9375 8.4375 9.9375 8.4375 7 8 C4.4001393 5.90507092 2.13481125 3.56546482 0 1 C0 0.67 0 0.34 0 0 Z " fill="#7A7878" transform="translate(90,79)"/>
<path d="M0 0 C0.33 1.32 0.66 2.64 1 4 C1.66 4 2.32 4 3 4 C2.67 5.98 2.34 7.96 2 10 C1.34 10 0.68 10 0 10 C-0.74926071 6.33694766 -1.2380014 3.57644848 0 0 Z " fill="#C0C0C0" transform="translate(216,195)"/>
<path d="M0 0 C0.66 0 1.32 0 2 0 C1.55005243 1.79379098 1.08975857 3.58498928 0.625 5.375 C0.36976562 6.37273437 0.11453125 7.37046875 -0.1484375 8.3984375 C-1 11 -1 11 -3 13 C-4.23593891 9.29218328 -3.5678132 8.32489747 -2.0625 4.8125 C-1.68222656 3.91144531 -1.30195312 3.01039063 -0.91015625 2.08203125 C-0.60980469 1.39496094 -0.30945313 0.70789063 0 0 Z " fill="#CACACA" transform="translate(111,150)"/>
<path d="M0 0 C0 0.66 0 1.32 0 2 C-2.64 2 -5.28 2 -8 2 C-8 1.34 -8 0.68 -8 0 C-5.13822943 -1.43088528 -3.06624227 -0.59991697 0 0 Z " fill="#D8D8D8" transform="translate(84,200)"/>
<path d="M0 0 C2.31 1.98 4.62 3.96 7 6 C6.67 6.99 6.34 7.98 6 9 C4.99406757 7.8803014 3.9954151 6.7540588 3 5.625 C2.443125 4.99851563 1.88625 4.37203125 1.3125 3.7265625 C0 2 0 2 0 0 Z " fill="#898786" transform="translate(170,157)"/>
<path d="M0 0 C0.66 0 1.32 0 2 0 C0.70700306 2.88437779 -0.65941363 4.87219421 -3 7 C-3.99 6.67 -4.98 6.34 -6 6 C-5.34 6 -4.68 6 -4 6 C-3.71125 5.38125 -3.4225 4.7625 -3.125 4.125 C-2 2 -2 2 0 0 Z " fill="#DDDDDD" transform="translate(121,160)"/>
<path d="M0 0 C0.33 0 0.66 0 1 0 C1.33 2.31 1.66 4.62 2 7 C0.68 7.33 -0.64 7.66 -2 8 C-1.125 1.125 -1.125 1.125 0 0 Z " fill="#C5C5C5" transform="translate(132,204)"/>
<path d="M0 0 C0.99 0 1.98 0 3 0 C2.67 1.65 2.34 3.3 2 5 C1.01 4.67 0.02 4.34 -1 4 C-0.67 2.68 -0.34 1.36 0 0 Z " fill="#C8C8C8" transform="translate(140,204)"/>
<path d="M0 0 C1.32 0.66 2.64 1.32 4 2 C0.04 3.98 0.04 3.98 -4 6 C-2 2 -2 2 0 0 Z " fill="#5F5F5F" transform="translate(162,69)"/>
</svg>